<svg width="24" height="24" viewBox="0 0 24 24" fill="none" xmlns="http://www.w3.org/2000/svg">
  <path d="M19.75 20.5C19.9625 20.5 20.1406 20.428 20.2843 20.2842C20.4281 20.1404 20.5 19.9622 20.5 19.7496C20.5 19.537 20.4281 19.3589 20.2843 19.2154C20.1406 19.0718 19.9625 19 19.75 19H4.25C4.0375 19 3.85938 19.0719 3.71563 19.2157C3.57188 19.3595 3.5 19.5377 3.5 19.7503C3.5 19.9629 3.57188 20.141 3.71563 20.2846C3.85938 20.4282 4.0375 20.5 4.25 20.5H19.75ZM19.75 16.625C19.9625 16.625 20.1406 16.553 20.2843 16.4092C20.4281 16.2654 20.5 16.0872 20.5 15.8746C20.5 15.662 20.4281 15.484 20.2843 15.3404C20.1406 15.1968 19.9625 15.125 19.75 15.125H4.25C4.0375 15.125 3.85938 15.1969 3.71563 15.3407C3.57188 15.4845 3.5 15.6627 3.5 15.8753C3.5 16.0879 3.57188 16.266 3.71563 16.4096C3.85938 16.5532 4.0375 16.625 4.25 16.625H19.75ZM19.75 12.75C19.9625 12.75 20.1406 12.6781 20.2843 12.5343C20.4281 12.3904 20.5 12.2122 20.5 11.9997C20.5 11.7871 20.4281 11.609 20.2843 11.4654C20.1406 11.3218 19.9625 11.25 19.75 11.25H4.25C4.0375 11.25 3.85938 11.3219 3.71563 11.4657C3.57188 11.6095 3.5 11.7877 3.5 12.0003C3.5 12.2129 3.57188 12.391 3.71563 12.5346C3.85938 12.6782 4.0375 12.75 4.25 12.75H19.75ZM19.75 8.875C19.9625 8.875 20.1406 8.80307 20.2843 8.65925C20.4281 8.51543 20.5 8.33723 20.5 8.12465C20.5 7.91205 20.4281 7.73396 20.2843 7.59038C20.1406 7.44679 19.9625 7.375 19.75 7.375H4.25C4.0375 7.375 3.85938 7.44691 3.71563 7.59073C3.57188 7.73453 3.5 7.91273 3.5 8.12533C3.5 8.33791 3.57188 8.51599 3.71563 8.65958C3.85938 8.80318 4.0375 8.875 4.25 8.875H19.75ZM19.75 4.99998C19.9625 4.99998 20.1406 4.92807 20.2843 4.78425C20.4281 4.64045 20.5 4.46225 20.5 4.24965C20.5 4.03707 20.4281 3.85898 20.2843 3.7154C20.1406 3.5718 19.9625 3.5 19.75 3.5H4.25C4.0375 3.5 3.85938 3.57191 3.71563 3.71573C3.57188 3.85954 3.5 4.03774 3.5 4.25033C3.5 4.46293 3.57188 4.64102 3.71563 4.7846C3.85938 4.92818 4.0375 4.99998 4.25 4.99998H19.75Z" fill="#8F95B2"/>
</svg>
