<svg width="24" height="24" viewBox="0 0 24 24" fill="none" xmlns="http://www.w3.org/2000/svg">
<path d="M10.0577 18.7498C9.84521 18.7498 9.66708 18.6779 9.52333 18.5341C9.3796 18.3903 9.30773 18.2121 9.30773 17.9995C9.30773 17.7869 9.3796 17.6088 9.52333 17.4653C9.66708 17.3217 9.84521 17.2499 10.0577 17.2499H19.75C19.9625 17.2499 20.1406 17.3218 20.2844 17.4656C20.4281 17.6094 20.5 17.7876 20.5 18.0002C20.5 18.2128 20.4281 18.3909 20.2844 18.5345C20.1406 18.678 19.9625 18.7498 19.75 18.7498H10.0577ZM10.0577 12.7498C9.84521 12.7498 9.66708 12.6779 9.52333 12.5341C9.3796 12.3903 9.30773 12.2121 9.30773 11.9995C9.30773 11.7869 9.3796 11.6088 9.52333 11.4653C9.66708 11.3217 9.84521 11.2499 10.0577 11.2499H19.75C19.9625 11.2499 20.1406 11.3218 20.2844 11.4656C20.4281 11.6094 20.5 11.7876 20.5 12.0002C20.5 12.2128 20.4281 12.3909 20.2844 12.5345C20.1406 12.678 19.9625 12.7498 19.75 12.7498H10.0577ZM10.0577 6.74983C9.84521 6.74983 9.66708 6.67792 9.52333 6.53412C9.3796 6.39031 9.30773 6.21211 9.30773 5.99953C9.30773 5.78693 9.3796 5.60883 9.52333 5.46525C9.66708 5.32167 9.84521 5.24987 10.0577 5.24987H19.75C19.9625 5.24987 20.1406 5.32178 20.2844 5.46558C20.4281 5.60939 20.5 5.78759 20.5 6.00018C20.5 6.21278 20.4281 6.39087 20.2844 6.53445C20.1406 6.67803 19.9625 6.74983 19.75 6.74983H10.0577ZM5.16348 19.6633C4.70603 19.6633 4.31443 19.5004 3.98868 19.1747C3.66291 18.8489 3.50003 18.4573 3.50003 17.9999C3.50003 17.5424 3.66291 17.1508 3.98868 16.8251C4.31443 16.4993 4.70603 16.3364 5.16348 16.3364C5.62093 16.3364 6.01253 16.4993 6.33828 16.8251C6.66403 17.1508 6.82691 17.5424 6.82691 17.9999C6.82691 18.4573 6.66403 18.8489 6.33828 19.1747C6.01253 19.5004 5.62093 19.6633 5.16348 19.6633ZM5.16348 13.6633C4.70603 13.6633 4.31443 13.5004 3.98868 13.1747C3.66291 12.8489 3.50003 12.4573 3.50003 11.9999C3.50003 11.5424 3.66291 11.1508 3.98868 10.8251C4.31443 10.4993 4.70603 10.3364 5.16348 10.3364C5.62093 10.3364 6.01253 10.4993 6.33828 10.8251C6.66403 11.1508 6.82691 11.5424 6.82691 11.9999C6.82691 12.4573 6.66403 12.8489 6.33828 13.1747C6.01253 13.5004 5.62093 13.6633 5.16348 13.6633ZM5.16348 7.66328C4.70603 7.66328 4.31443 7.5004 3.98868 7.17465C3.66291 6.8489 3.50003 6.4573 3.50003 5.99985C3.50003 5.5424 3.66291 5.1508 3.98868 4.82505C4.31443 4.4993 4.70603 4.33643 5.16348 4.33643C5.62093 4.33643 6.01253 4.4993 6.33828 4.82505C6.66403 5.1508 6.82691 5.5424 6.82691 5.99985C6.82691 6.4573 6.66403 6.8489 6.33828 7.17465C6.01253 7.5004 5.62093 7.66328 5.16348 7.66328Z" fill="#8F95B2"/>
</svg>
