<?xml version="1.0" encoding="UTF-8"?>
<!DOCTYPE svg PUBLIC "-//W3C//DTD SVG 1.1//EN" "http://www.w3.org/Graphics/SVG/1.1/DTD/svg11.dtd">
<svg xmlns="http://www.w3.org/2000/svg" version="1.1" width="264px" height="231px" style="shape-rendering:geometricPrecision; text-rendering:geometricPrecision; image-rendering:optimizeQuality; fill-rule:evenodd; clip-rule:evenodd" xmlns:xlink="http://www.w3.org/1999/xlink">
<g><path style="opacity:0.994" fill="#f8003b" d="M 63.5,-0.5 C 66.8333,-0.5 70.1667,-0.5 73.5,-0.5C 97.4147,1.79212 116.748,12.4588 131.5,31.5C 146.252,12.4588 165.585,1.79212 189.5,-0.5C 192.833,-0.5 196.167,-0.5 199.5,-0.5C 233.984,3.74103 255.318,22.741 263.5,56.5C 263.5,65.8333 263.5,75.1667 263.5,84.5C 259.061,105.711 249.561,124.378 235,140.5C 207.772,169.729 179.272,197.563 149.5,224C 146.067,226.711 142.4,228.877 138.5,230.5C 133.833,230.5 129.167,230.5 124.5,230.5C 120.6,228.877 116.933,226.711 113.5,224C 82.365,196.532 52.865,167.365 25,136.5C 11.8883,120.613 3.38832,102.613 -0.5,82.5C -0.5,74.1667 -0.5,65.8333 -0.5,57.5C 7.49113,23.496 28.8245,4.16264 63.5,-0.5 Z"/></g>
</svg>
