<?xml version="1.0" encoding="UTF-8"?>
<svg version="1.1" xmlns="http://www.w3.org/2000/svg" width="254" height="214">
<path d="M0 0 C3.5808015 2.78347636 6.80172148 5.79002759 10 9 C10.63292969 9.57363281 11.26585938 10.14726562 11.91796875 10.73828125 C19.71400296 17.94918265 24.52756425 27.49865031 29 37 C29.59425781 35.92363281 30.18851562 34.84726562 30.80078125 33.73828125 C42.20727947 13.47042091 56.32173775 -2.79272391 79.4375 -9.875 C96.84814281 -13.69573239 114.94306416 -11.61067979 130.1171875 -2.1015625 C143.04289004 7.32123962 151.88671097 19.90483058 154.70703125 35.78808594 C158.55912874 64.871422 147.35127305 92.21911815 130.1875 115.1875 C105.57533818 147.26747139 74.98971825 172.26132823 41.625 194.75 C40.7268457 195.35908203 39.82869141 195.96816406 38.90332031 196.59570312 C38.06124023 197.15708984 37.21916016 197.71847656 36.3515625 198.296875 C35.60729004 198.79541992 34.86301758 199.29396484 34.09619141 199.80761719 C31.93852162 201.03497093 30.47764617 201.79941862 28 202 C25.82788086 200.95874023 25.82788086 200.95874023 23.46484375 199.30859375 C22.58223877 198.70031738 21.69963379 198.09204102 20.7902832 197.46533203 C19.84886475 196.79614746 18.90744629 196.12696289 17.9375 195.4375 C16.96321045 194.75800293 15.9889209 194.07850586 14.98510742 193.37841797 C1.65323367 184.0332321 -11.57291478 174.53080407 -24 164 C-25.03457152 163.15032919 -26.06976223 162.30141194 -27.10546875 161.453125 C-41.26900506 149.72679369 -54.9163764 136.70974737 -66 122 C-66.72960937 121.07574219 -67.45921875 120.15148437 -68.2109375 119.19921875 C-84.28171931 98.49368928 -96.35332922 75.15483157 -96.5 48.5 C-96.50636475 47.52168213 -96.51272949 46.54336426 -96.51928711 45.53540039 C-96.27211874 31.45396785 -91.03432707 16.17465717 -81.125 5.8671875 C-57.79378651 -14.63340083 -26.03270971 -17.12134255 0 0 Z " fill="#F8003B" transform="translate(98,12)"/>
</svg>
