<?xml version="1.0" encoding="UTF-8"?>
<svg version="1.1" xmlns="http://www.w3.org/2000/svg" width="264" height="231">
<path d="M0 0 C5.21029532 4.55900841 9.88441567 9.4888584 14.28125 14.83203125 C17.61915735 13.71939547 18.25312624 12.92713086 20.40625 10.26953125 C34.18752495 -5.84218895 52.31101164 -14.21660974 73.28125 -16.16796875 C92.7084521 -17.55352034 111.25753006 -11.16429394 125.96875 1.45703125 C138.78630689 13.66422828 146.93215974 29.38850824 147.65234375 47.16796875 C148.02773179 68.53481378 144.86707686 85.27792557 134.28125 103.83203125 C133.73726562 104.80398437 133.19328125 105.7759375 132.6328125 106.77734375 C120.69563846 126.75027397 101.83464008 143.45765149 85.48999023 159.75366211 C83.31700665 161.92120767 81.14952637 164.09415625 78.98242188 166.26757812 C77.57323771 167.67610252 76.16374394 169.08431725 74.75390625 170.4921875 C74.12041763 171.12770035 73.48692902 171.7632132 72.83424377 172.41798401 C69.03112325 176.2015055 65.10851057 179.79157269 61.04978943 183.29930115 C59.08216585 185.00457039 57.17120587 186.75996369 55.28125 188.55078125 C54.62125 189.17339844 53.96125 189.79601562 53.28125 190.4375 C52.62125 191.06269531 51.96125 191.68789062 51.28125 192.33203125 C37.97854789 204.93322368 37.97854789 204.93322368 31.09375 210.14453125 C30.48144531 210.61503906 29.86914062 211.08554688 29.23828125 211.5703125 C22.682145 215.7971229 15.84856992 215.49492503 8.28125 214.83203125 C0.92123209 213.00124215 -4.38336046 206.88214708 -9.71875 201.83203125 C-11.71232087 199.9916576 -13.71614591 198.16256399 -15.71875 196.33203125 C-16.74611982 195.38804921 -17.77346385 194.44403909 -18.80078125 193.5 C-21.32031293 191.19633181 -23.85781135 188.91605976 -26.40625 186.64453125 C-38.37332736 175.86849003 -49.94517152 164.70423725 -61.34375 153.33203125 C-62.11613007 152.56353348 -62.11613007 152.56353348 -62.90411377 151.7795105 C-68.17584105 146.52873536 -73.3585962 141.24525774 -78.19824219 135.58886719 C-79.64882823 133.91282076 -81.14280636 132.29987012 -82.67578125 130.69921875 C-105.34418007 107.02689463 -117.38378505 81.19338455 -116.99609375 48.13671875 C-116.45536769 30.01029008 -108.46580941 14.43755198 -95.71875 1.83203125 C-68.93548557 -21.54593242 -27.82034228 -22.18432466 0 0 Z M-83.71484375 21.4140625 C-92.01404568 31.42810927 -95.93295511 42.82672107 -95.71875 55.83203125 C-93.96606049 73.76913031 -86.20150297 88.45950112 -75.71875 102.83203125 C-75.29658203 103.41114258 -74.87441406 103.99025391 -74.43945312 104.58691406 C-69.62622324 111.12445204 -64.53442734 117.3556579 -59.01953125 123.3203125 C-57.75935678 124.69602079 -56.50694493 126.0796272 -55.29418945 127.49731445 C-50.39440715 133.22338923 -45.13982897 138.56368363 -39.8034668 143.87768555 C-38.28383332 145.39195705 -36.76962483 146.91150555 -35.25585938 148.43164062 C-30.49367977 153.19712831 -25.68315044 157.85442518 -20.56225586 162.23803711 C-17.35958677 165.00723675 -14.29924261 167.92853221 -11.21875 170.83203125 C-6.72877553 175.04338628 -2.24321233 179.24343581 2.44921875 183.23046875 C3.86295584 184.46635832 5.23265111 185.752742 6.58203125 187.05859375 C7.36964844 187.80882812 8.15726562 188.5590625 8.96875 189.33203125 C9.67386719 190.02296875 10.37898438 190.71390625 11.10546875 191.42578125 C13.1874461 193.0448583 13.1874461 193.0448583 15.6953125 192.86328125 C19.10102305 191.50511269 21.3910992 189.35562909 23.96875 186.83203125 C25.03470774 185.82114143 26.10112035 184.81073107 27.16796875 183.80078125 C27.69438965 183.29675781 28.22081055 182.79273438 28.76318359 182.2734375 C30.89623143 180.24810549 33.08606208 178.28961401 35.28125 176.33203125 C39.96629809 172.12904598 44.60030113 167.87290652 49.2265625 163.60546875 C50.77631057 162.18284945 52.33635061 160.78515231 53.9387207 159.421875 C60.394521 153.92188633 66.36055211 147.93882049 72.35327148 141.9453125 C74.20602468 140.09474158 76.06663706 138.25233049 77.92773438 136.41015625 C84.84322386 129.5273341 91.27758838 122.53639433 97.28125 114.83203125 C98.18517448 113.7127144 99.08994581 112.5940801 99.99609375 111.4765625 C113.79874346 93.88970655 128.86594774 72.30970235 126.28125 48.83203125 C124.17139534 34.80149775 118.53079995 23.71087067 107.28125 14.83203125 C94.81354081 6.79865731 81.9278586 4.05100171 67.28125 6.51953125 C50.88285468 10.3300558 37.82666031 20.40219558 28.56640625 34.4296875 C28.08042969 35.22246094 27.59445313 36.01523437 27.09375 36.83203125 C24.32764628 41.16766574 22.30296555 42.59862743 17.28125 43.83203125 C13.59375 43.58203125 13.59375 43.58203125 10.28125 42.83203125 C9.518125 42.72890625 8.755 42.62578125 7.96875 42.51953125 C5.57832556 41.54565463 5.40815746 40.13724897 4.28125 37.83203125 C-5.24254965 23.21953473 -17.08132156 11.27684815 -34.34375 6.83203125 C-52.79223973 3.39248232 -70.65983396 7.47159229 -83.71484375 21.4140625 Z " fill="#8E94B1" transform="translate(116.71875,16.16796875)"/>
</svg>
