<?xml version="1.0" encoding="UTF-8"?>
<!DOCTYPE svg PUBLIC "-//W3C//DTD SVG 1.1//EN" "http://www.w3.org/Graphics/SVG/1.1/DTD/svg11.dtd">
<svg xmlns="http://www.w3.org/2000/svg" version="1.1" width="264px" height="231px" style="shape-rendering:geometricPrecision; text-rendering:geometricPrecision; image-rendering:optimizeQuality; fill-rule:evenodd; clip-rule:evenodd" xmlns:xlink="http://www.w3.org/1999/xlink">
<g><path style="opacity:0.971" fill="#8e94b1" d="M 63.5,-0.5 C 66.8333,-0.5 70.1667,-0.5 73.5,-0.5C 97.4147,1.79212 116.748,12.4588 131.5,31.5C 146.252,12.4588 165.585,1.79212 189.5,-0.5C 192.833,-0.5 196.167,-0.5 199.5,-0.5C 233.984,3.74103 255.318,22.741 263.5,56.5C 263.5,65.8333 263.5,75.1667 263.5,84.5C 259.061,105.711 249.561,124.378 235,140.5C 207.772,169.729 179.272,197.563 149.5,224C 146.067,226.711 142.4,228.877 138.5,230.5C 133.833,230.5 129.167,230.5 124.5,230.5C 120.6,228.877 116.933,226.711 113.5,224C 82.365,196.532 52.865,167.365 25,136.5C 11.8883,120.613 3.38832,102.613 -0.5,82.5C -0.5,74.1667 -0.5,65.8333 -0.5,57.5C 7.49113,23.496 28.8245,4.16264 63.5,-0.5 Z M 63.5,21.5 C 83.7169,20.5261 100.217,27.8594 113,43.5C 116.308,48.3081 119.808,52.9748 123.5,57.5C 129.302,61.4637 134.969,61.2971 140.5,57C 148.218,43.6157 158.884,33.2824 172.5,26C 196.08,16.8981 216.246,21.7314 233,40.5C 243.922,57.4005 245.256,75.0672 237,93.5C 227.975,110.891 216.975,126.891 204,141.5C 181.36,164.708 157.86,186.875 133.5,208C 132.167,208.667 130.833,208.667 129.5,208C 106.063,187.232 83.2295,165.732 61,143.5C 46.2319,127.729 34.2319,110.062 25,90.5C 16.1509,65.7193 21.9842,45.2193 42.5,29C 49.1618,25.171 56.1618,22.671 63.5,21.5 Z"/></g>
</svg>
