<svg width="20" height="20" viewBox="0 0 20 20" fill="none" xmlns="http://www.w3.org/2000/svg">
<path d="M10 14.1666C10.2361 14.1666 10.434 14.0868 10.5938 13.927C10.7535 13.7673 10.8333 13.5694 10.8333 13.3333V9.99996C10.8333 9.76385 10.7535 9.56593 10.5938 9.40621C10.434 9.24649 10.2361 9.16663 10 9.16663C9.7639 9.16663 9.56598 9.24649 9.40626 9.40621C9.24653 9.56593 9.16667 9.76385 9.16667 9.99996V13.3333C9.16667 13.5694 9.24653 13.7673 9.40626 13.927C9.56598 14.0868 9.7639 14.1666 10 14.1666ZM10 7.49996C10.2361 7.49996 10.434 7.4201 10.5938 7.26038C10.7535 7.10065 10.8333 6.90274 10.8333 6.66663C10.8333 6.43052 10.7535 6.2326 10.5938 6.07288C10.434 5.91315 10.2361 5.83329 10 5.83329C9.7639 5.83329 9.56598 5.91315 9.40626 6.07288C9.24653 6.2326 9.16667 6.43052 9.16667 6.66663C9.16667 6.90274 9.24653 7.10065 9.40626 7.26038C9.56598 7.4201 9.7639 7.49996 10 7.49996ZM10 18.3333C8.84723 18.3333 7.76389 18.1145 6.75001 17.677C5.73612 17.2395 4.85417 16.6458 4.10417 15.8958C3.35417 15.1458 2.76042 14.2638 2.32292 13.25C1.88542 12.2361 1.66667 11.1527 1.66667 9.99996C1.66667 8.84718 1.88542 7.76385 2.32292 6.74996C2.76042 5.73607 3.35417 4.85413 4.10417 4.10413C4.85417 3.35413 5.73612 2.76038 6.75001 2.32288C7.76389 1.88538 8.84723 1.66663 10 1.66663C11.1528 1.66663 12.2361 1.88538 13.25 2.32288C14.2639 2.76038 15.1458 3.35413 15.8958 4.10413C16.6458 4.85413 17.2396 5.73607 17.6771 6.74996C18.1146 7.76385 18.3333 8.84718 18.3333 9.99996C18.3333 11.1527 18.1146 12.2361 17.6771 13.25C17.2396 14.2638 16.6458 15.1458 15.8958 15.8958C15.1458 16.6458 14.2639 17.2395 13.25 17.677C12.2361 18.1145 11.1528 18.3333 10 18.3333Z" fill="#8F95B2"/>
</svg>
